<?xml version="1.0" encoding="utf-8"?>
<!-- Generator: Adobe Illustrator 27.3.1, SVG Export Plug-In . SVG Version: 6.00 Build 0)  -->
<svg version="1.1" id="Layer_1" xmlns="http://www.w3.org/2000/svg" xmlns:xlink="http://www.w3.org/1999/xlink" x="0px" y="0px"
	 viewBox="0 0 792 612" style="enable-background:new 0 0 792 612;" xml:space="preserve">
<style type="text/css">
	.st0{fill:url(#SVGID_1_);}
	.st1{fill:url(#SVGID_00000065061676185093117710000004762747902881525148_);}
	.st2{fill:url(#SVGID_00000027564227658271873580000006917929633778864568_);}
	.st3{fill:url(#SVGID_00000129169304285359610880000003868460956371041675_);}
	.st4{fill:url(#SVGID_00000054981754426097672690000007931345231555027328_);}
	.st5{fill:url(#SVGID_00000060711064677691759720000000180457156332225670_);}
</style>
<linearGradient id="SVGID_1_" gradientUnits="userSpaceOnUse" x1="411.348" y1="277.4502" x2="389.0507" y2="227.4502">
	<stop  offset="9.648576e-03" style="stop-color:#008A52"/>
	<stop  offset="0.4393" style="stop-color:#26A146"/>
	<stop  offset="1" style="stop-color:#39B54A"/>
</linearGradient>
<path class="st0" d="M530.82,169.08c-11.62-25.33-65.66-20.94-66.17-20.82l-0.04,0.01c2.63,1.91,5.19,3.93,7.65,6.04
	c13.91,2.43,31.39,6.53,35.72,15.44c1.91,3.93,1.27,8.66-1.96,14.48c-1.11,2-2.98,4.1-5.48,6.24c-6.01,5.13-15.77,10.5-28.22,15.39
	c-0.85,0.34-1.77,0.68-2.74,1.03c-22.36,8.07-73.58,19.63-74.1,19.75c-2.35,0.51-46.6,10.19-81.13,23.81
	c-9.32,3.68-17.94,7.65-24.83,11.8c-1.76,1.06-4.63,2.89-7.92,5.36c-4.66,3.5-10.18,8.28-14.64,14.04
	c-9.04,11.66-11.04,23.88-5.78,35.33c8.55,18.63,40.05,21.18,56.32,21.18c5.84,0,9.72-0.33,9.85-0.36l0.04-0.01
	c-2.63-1.91-5.19-3.93-7.65-6.04c-13.91-2.43-31.39-6.53-35.72-15.44c-1.91-3.93-1.27-8.66,1.96-14.48c1.11-2,2.98-4.1,5.48-6.24
	c6.01-5.13,15.77-10.5,28.22-15.39c0.86-0.34,1.78-0.68,2.74-1.03c21.43-7.75,68.99-18.59,73.8-19.68l0.3-0.07
	c2.35-0.51,46.61-10.2,81.13-23.82c9.33-3.68,17.94-7.65,24.83-11.8c1.76-1.06,4.63-2.89,7.93-5.36c4.66-3.5,10.18-8.28,14.64-14.04
	C534.08,192.75,536.08,180.53,530.82,169.08z"/>
<linearGradient id="SVGID_00000111188605691903141810000016993384164366953151_" gradientUnits="userSpaceOnUse" x1="413.6729" y1="308.583" x2="398.808" y2="248.4479">
	<stop  offset="0" style="stop-color:#3057A5"/>
	<stop  offset="1" style="stop-color:#1D386D"/>
</linearGradient>
<path style="fill:url(#SVGID_00000111188605691903141810000016993384164366953151_);" d="M510.4,218.45
	c-3.29,2.47-6.17,4.3-7.93,5.36c-6.89,4.15-15.5,8.12-24.83,11.8c0.22,2.45,0.35,4.92,0.35,7.43c0,8.73-1.38,17.13-3.92,25.03
	c-10.61,33.01-41.59,56.97-78.08,56.97c-21.03,0-40.23-7.97-54.76-21.03c-7.75-6.97-14.17-15.39-18.83-24.83
	c-0.97,0.35-1.89,0.69-2.74,1.03c-12.45,4.89-22.21,10.26-28.22,15.39c0.13,0.25,0.26,0.5,0.39,0.75c2.07,4.03,4.36,7.93,6.86,11.68
	c2.31,3.45,4.8,6.77,7.46,9.95c4.14,4.96,8.67,9.57,13.57,13.78c2.46,2.12,5.02,4.13,7.65,6.04c19.28,13.98,42.98,22.23,68.62,22.23
	c62.53,0,113.6-49.05,116.84-110.78c0.11-2.06,0.16-4.13,0.16-6.22C513,234.6,512.1,226.38,510.4,218.45z"/>
<linearGradient id="SVGID_00000118360135967317910790000013932759363450146746_" gradientUnits="userSpaceOnUse" x1="374.8545" y1="134.7319" x2="387.0166" y2="205.6778">
	<stop  offset="0" style="stop-color:#4BBBEB"/>
	<stop  offset="1" style="stop-color:#0070B9"/>
</linearGradient>
<path style="fill:url(#SVGID_00000118360135967317910790000013932759363450146746_);" d="M500.33,190.05
	c-2.1-4.13-4.44-8.12-6.99-11.94c-2.38-3.57-4.96-6.99-7.71-10.26c-4.08-4.86-8.55-9.39-13.36-13.53c-2.46-2.12-5.02-4.13-7.65-6.04
	c-19.28-13.98-42.98-22.23-68.62-22.23c-62.37,0-113.33,48.8-116.8,110.3c-0.13,2.22-0.2,4.45-0.2,6.7c0,8.43,0.9,16.66,2.6,24.59
	c3.29-2.47,6.17-4.3,7.92-5.36c6.89-4.15,15.51-8.12,24.83-11.8c-0.22-2.45-0.35-4.92-0.35-7.42c0-8.83,1.42-17.32,4.01-25.29
	c10.69-32.87,41.6-56.71,77.99-56.71c20.95,0,40.09,7.91,54.59,20.89c7.82,7,14.3,15.47,18.99,24.97c0.97-0.35,1.89-0.69,2.74-1.03
	c12.45-4.89,22.21-10.26,28.22-15.39C500.48,190.33,500.4,190.19,500.33,190.05z"/>
<g>
	
		<linearGradient id="SVGID_00000030478172238754375380000001317453283876794281_" gradientUnits="userSpaceOnUse" x1="329.9595" y1="485.6799" x2="329.9595" y2="361.9648">
		<stop  offset="9.648576e-03" style="stop-color:#008A52"/>
		<stop  offset="0.4393" style="stop-color:#26A146"/>
		<stop  offset="1" style="stop-color:#39B54A"/>
	</linearGradient>
	<path style="fill:url(#SVGID_00000030478172238754375380000001317453283876794281_);" d="M364.57,382.88h-16.54
		c-0.83,0-1.5,0.67-1.5,1.5v3.7c-3.09-2.88-9.27-6.86-19.77-6.86c-19.69,0-32.92,14.79-32.92,36.81c0,22,13.71,37.36,33.33,37.36
		c7.78,0,13.79-2.24,18.24-6.83v3.67c0,13.69-11.6,15.74-18.52,15.74c-10.19,0-18.83-4.38-18.91-4.42
		c-0.38-0.19-0.82-0.22-1.22-0.07c-0.4,0.15-0.71,0.46-0.87,0.86l-5.28,13.48c-0.28,0.71,0.02,1.51,0.69,1.87
		c7.42,3.94,17.09,6.29,25.86,6.29c10.36,0,19.79-2.82,26.54-7.93c8.08-6.13,12.36-15.49,12.36-27.07v-66.58
		C366.07,383.55,365.4,382.88,364.57,382.88z M330.93,437.51c-9.9,0-16.29-7.87-16.29-20.05c0-11.42,5.67-18.24,15.18-18.24
		c6.88,0,16.02,1.96,16.02,18.93C345.84,430.82,340.68,437.51,330.93,437.51z"/>
	
		<linearGradient id="SVGID_00000071529925100351641540000011588922928560259714_" gradientUnits="userSpaceOnUse" x1="408.562" y1="485.6799" x2="408.562" y2="361.9648">
		<stop  offset="9.648576e-03" style="stop-color:#008A52"/>
		<stop  offset="0.4393" style="stop-color:#26A146"/>
		<stop  offset="1" style="stop-color:#39B54A"/>
	</linearGradient>
	<path style="fill:url(#SVGID_00000071529925100351641540000011588922928560259714_);" d="M410.86,381.21
		c-22.08,0-37.5,15.88-37.5,38.62c0,22.38,16.65,38.61,39.59,38.61c18.04,0,29.06-10.12,29.52-10.55c0.5-0.47,0.62-1.21,0.3-1.81
		l-6.81-12.65c-0.22-0.4-0.6-0.68-1.05-0.76c-0.45-0.09-0.91,0.04-1.25,0.34c-0.09,0.07-8.77,7.42-19.46,7.42
		c-12.54,0-18.26-8.16-19.56-15.77h47.22c0.78,0,1.43-0.59,1.49-1.37c0.02-0.2,0.42-4.82,0.42-6.94
		C443.77,395.33,430.54,381.21,410.86,381.21z M410.44,397.84c7.02,0,11.67,4.45,12.44,11.73h-27.53
		C397.33,402.08,402.75,397.84,410.44,397.84z"/>
	
		<linearGradient id="SVGID_00000065040834905264412830000006149322045484957360_" gradientUnits="userSpaceOnUse" x1="471.3184" y1="485.6799" x2="471.3184" y2="361.9648">
		<stop  offset="9.648576e-03" style="stop-color:#008A52"/>
		<stop  offset="0.4393" style="stop-color:#26A146"/>
		<stop  offset="1" style="stop-color:#39B54A"/>
	</linearGradient>
	<path style="fill:url(#SVGID_00000065040834905264412830000006149322045484957360_);" d="M493.4,354.96
		c-0.1-0.02-2.54-0.44-6.24-0.44c-9.14,0-30.41,2.71-30.41,27.77v1.7h-7.26c-0.83,0-1.5,0.67-1.5,1.5v14.04c0,0.83,0.67,1.5,1.5,1.5
		h7.26v54.24c0,0.83,0.67,1.5,1.5,1.5h17.65c0.83,0,1.5-0.67,1.5-1.5v-54.24h13.65c0.83,0,1.5-0.67,1.5-1.5v-14.04
		c0-0.83-0.67-1.5-1.5-1.5h-13.65v-1.28c0-6.66,4.08-10.04,12.12-10.04c1.91,0,3.33,0.25,3.35,0.25c0.44,0.08,0.89-0.04,1.23-0.33
		s0.54-0.71,0.54-1.15v-15.01C494.64,355.71,494.12,355.09,493.4,354.96z"/>
</g>
</svg>
