<?xml version="1.0" encoding="UTF-8"?><svg id="Layer_1" xmlns="http://www.w3.org/2000/svg" viewBox="0 0 100 100"><defs><style>.cls-1{fill:#318c52;}</style></defs><path class="cls-1" d="m71.47,66.5c-.09.09-.18.16-.27.24-.16.14-.53.24-.66.15-.17-.12-.25-.43-.3-.68-.02-.14.08-.31.13-.46.11-.28.25-.55.32-.84.14-.58.27-1.17.35-1.76.11-.72.17-1.45.25-2.17,0-.02,0-.05,0-.07-.3-.42-.22-.89-.19-1.35.02-.27-.11-.39-.37-.38-.2,0-.44.05-.6-.03-.41-.22-.77-.1-1.16.04-.48.18-.75.1-1.01-.37-.17-.29-.29-.61-.42-.92-.12-.26-.29-.42-.6-.44-.38-.04-.48-.21-.25-.53.29-.41.28-.83.17-1.29-.07-.33-.18-.66-.17-.99.01-.29.09-.68.29-.85.94-.78,1.91-.94,2.67.17.12.17.21.19.39.08.17-.1.37-.22.55-.2.38.03.42-.18.41-.46-.01-.25-.02-.52-.41-.46-.25.04-.5.06-.75.06-.1,0-.28-.05-.31-.12-.15-.4-.43-.59-.84-.61-.06,0-.12-.04-.18-.07-.47-.26-.61-.2-.8.3-.05.13-.09.28-.18.37-.09.08-.31.17-.35.13-.22-.21-.44-.05-.66-.03-.16.01-.37-.02-.47-.12-.06-.06,0-.3.07-.43.32-.57.27-.7-.37-.85-.09-.02-.22-.02-.28-.09-.09-.1-.17-.24-.17-.36,0-.07.16-.15.26-.2.06-.03.15,0,.22-.01.17-.03.33-.07.49-.1-.06-.17-.1-.35-.19-.51-.07-.13-.19-.23-.3-.33-.7-.57-1.51-.86-2.4-.83-.65.02-1.31.11-1.67.8-.11.22-.27.17-.36-.03-.08-.18-.1-.39-.2-.56-.05-.1-.21-.21-.32-.2-.19.01-.38.11-.59.17,0,0,0,.04,0,.07.24.45.22.49-.28.58-.12.02-.25.01-.37.02-.35.04-.69.07-1.04.14-.17.03-.35.11-.51.19-.14.07-.34.16-.37.28-.09.36.16.59.46.72.12.05.36-.01.45-.1.23-.23.39-.52.6-.77.27-.3.52-.33.82-.07.28.25.52.54.73.85.09.12.03.34.04.52-.14-.04-.31-.05-.43-.12-.31-.19-.59-.24-.85.07q.39.57-.28.79c-.66.21-1.23.56-1.69,1.08-.39.43-.69.9-.45,1.53.02.05-.01.12-.03.27-.2-.13-.35-.21-.49-.32-.25-.22-.49-.46-.75-.68-.14-.12-.24-.1-.35.09-.2.34-.46.65-.65,1.01-.12.23-.18.5-.22.76-.03.26.1.39.39.33.16-.03.33,0,.41,0,.06.36.08.64.15.91.08.29.19.58.32.86.05.11.18.23.29.24.15.01.32-.06.47-.11.54-.18,1.07-.36,1.64-.11.12.05.27-.01.41-.03.46-.06.94-.06,1.28.27.33.32.65.61,1.07.8.22.1.32.33.19.61-.06.13-.13.39-.08.42.14.1.35.14.53.18.31.07.63.09.94.18.3.08.58.21.88.31.35.11.63.31.69.67.05.34.05.7-.02,1.03-.13.54-.45,1.03-.38,1.63.01.15-.11.34-.23.46-.37.4-.78.77-1.15,1.18-.25.26-.51.53-.66.85-.18.39-.26.83-.63,1.13-.07.05-.12.18-.11.27.08.71-.42,1.25-.55,1.89-.07.28-.29.41-.55.26-.39-.21-.65-.53-.71-1-.06-.38-.12-.77-.24-1.13-.21-.57-.35-1.13-.21-1.76.21-.94,0-1.73-.9-2.25-.39-.23-.62-.56-.6-1.06.03-.48-.25-.82-.62-1.1-.48-.35-.59-.73-.33-1.29.13-.27.3-.52.44-.79.2-.36.15-.63-.18-.88-.16-.13-.33-.23-.5-.34-.48-.29-.99-.55-1.44-.88-.89-.65-1.23-1.53-1.01-2.61.02-.12.04-.24.06-.38-.57.02-.38.59-.77.87-.03-.27-.11-.47-.07-.64.18-.64.39-1.26.59-1.9.04-.11.1-.22.14-.33-3,3.31-3.79,8.52-1.51,12.86,2.11,4.03,6.41,6.43,10.86,6.19-5.57.75-11.1-2.56-12.94-8.09-.47-1.39-.66-2.81-.61-4.2.02-.66-.44-1.24-1.09-1.37l-12.73-2.62c-.44-.08-.88.05-1.21.34-.45.42-1,.75-1.63.96-2.41.81-5.02-.54-5.76-2.99-.68-2.22.48-4.64,2.64-5.51,1.05-.42,2.16-.42,3.14-.09.42.14.88.07,1.24-.2l.52-.38,10.36-7.65c.34.47.71.9,1.13,1.3l-10.19,7.52-.03.02c-.53.39-.69,1.11-.4,1.71.08.17.16.35.22.54.02.07.04.13.06.2.14.49.52.86,1.02.96l12.7,2.61c.59.12,1.19-.16,1.48-.69.78-1.43,1.85-2.7,3.16-3.72.47-.36.64-1,.43-1.56l-2.22-5.73c-.18-.48-.61-.81-1.12-.86-1.5-.17-2.91-.8-4.04-1.8-.43-.37-.81-.8-1.15-1.28-.4-.57-.73-1.21-.96-1.91-1.32-3.96.92-8.24,4.98-9.39,3.55-1.01,7.35.82,8.77,4.23,1.16,2.77.5,5.78-1.37,7.82-.34.37-.45.92-.26,1.4l2.21,5.72c.21.55.76.9,1.34.87,5.3-.33,10.36,2.91,12.12,8.18,1.17,3.52.62,7.21-1.21,10.13Z"/></svg>