<?xml version="1.0" encoding="UTF-8"?><svg id="Layer_1" xmlns="http://www.w3.org/2000/svg" viewBox="0 0 250 50"><path d="m57.31,41.5c-.09.09-.18.16-.27.24-.16.14-.53.24-.66.15-.17-.12-.25-.43-.3-.68-.02-.14.08-.31.13-.46.11-.28.25-.55.32-.84.14-.58.27-1.17.35-1.76.11-.72.17-1.45.25-2.17,0-.02,0-.05,0-.07-.3-.42-.22-.89-.19-1.35.02-.27-.11-.39-.37-.38-.2,0-.44.05-.6-.03-.41-.22-.77-.1-1.16.04-.48.18-.75.1-1.01-.37-.17-.29-.29-.61-.42-.92-.12-.26-.29-.42-.6-.44-.38-.04-.48-.21-.25-.53.29-.41.28-.83.17-1.29-.07-.33-.18-.66-.17-.99.01-.29.09-.68.29-.85.94-.78,1.91-.94,2.67.17.12.17.21.19.39.08.17-.1.37-.22.55-.2.38.03.42-.18.41-.46-.01-.25-.02-.52-.41-.46-.25.04-.5.06-.75.06-.1,0-.28-.05-.31-.12-.15-.4-.43-.59-.84-.61-.06,0-.12-.04-.18-.07-.47-.26-.61-.2-.8.3-.05.13-.09.28-.18.37-.09.08-.31.17-.35.13-.22-.21-.44-.05-.66-.03-.16.01-.37-.02-.47-.12-.06-.06,0-.3.07-.43.32-.57.27-.7-.37-.85-.09-.02-.22-.02-.28-.09-.09-.1-.17-.24-.17-.36,0-.07.16-.15.26-.2.06-.03.15,0,.22-.01.17-.03.33-.07.49-.1-.06-.17-.1-.35-.19-.51-.07-.13-.19-.23-.3-.33-.7-.57-1.51-.86-2.4-.83-.65.02-1.31.11-1.67.8-.11.22-.27.17-.36-.03-.08-.18-.1-.39-.2-.56-.05-.1-.21-.21-.32-.2-.19.01-.38.11-.59.17,0,0,0,.04,0,.07.24.45.22.49-.28.58-.12.02-.25.01-.37.02-.35.04-.69.07-1.04.14-.17.03-.35.11-.51.19-.14.07-.34.16-.37.28-.09.36.16.59.46.72.12.05.36-.01.45-.1.23-.23.39-.52.6-.77.27-.3.52-.33.82-.07.28.25.52.54.73.85.09.12.03.34.04.52-.14-.04-.31-.05-.43-.12-.31-.19-.59-.24-.85.07q.39.57-.28.79c-.66.21-1.23.56-1.69,1.08-.39.43-.69.9-.45,1.53.02.05-.01.12-.03.27-.2-.13-.35-.21-.49-.32-.25-.22-.49-.46-.75-.68-.14-.12-.24-.1-.35.09-.2.34-.46.65-.65,1.01-.12.23-.18.5-.22.76-.03.26.1.39.39.33.16-.03.33,0,.41,0,.06.36.08.64.15.91.08.29.19.58.32.86.05.11.18.23.29.24.15.01.32-.06.47-.11.54-.18,1.07-.36,1.64-.11.12.05.27-.01.41-.03.46-.06.94-.06,1.28.27.33.32.65.61,1.07.8.22.1.32.33.19.61-.06.13-.13.39-.08.42.14.1.35.14.53.18.31.07.63.09.94.18.3.08.58.21.88.31.35.11.63.31.69.67.05.34.05.7-.02,1.03-.13.54-.45,1.03-.38,1.63.01.15-.11.34-.23.46-.37.4-.78.77-1.15,1.18-.25.26-.51.53-.66.85-.18.39-.26.83-.63,1.13-.07.05-.12.18-.11.27.08.71-.42,1.25-.55,1.89-.07.28-.29.41-.55.26-.39-.21-.65-.53-.71-1-.06-.38-.12-.77-.24-1.13-.21-.57-.35-1.13-.21-1.76.21-.94,0-1.73-.9-2.25-.39-.23-.62-.56-.6-1.06.03-.48-.25-.82-.62-1.1-.48-.35-.59-.73-.33-1.29.13-.27.3-.52.44-.79.2-.36.15-.63-.18-.88-.16-.13-.33-.23-.5-.34-.48-.29-.99-.55-1.44-.88-.89-.65-1.23-1.53-1.01-2.61.02-.12.04-.24.06-.38-.57.02-.38.59-.77.87-.03-.27-.11-.47-.07-.64.18-.64.39-1.26.59-1.9.04-.11.1-.22.14-.33-3,3.31-3.79,8.52-1.51,12.86,2.11,4.03,6.41,6.43,10.86,6.19-5.57.75-11.1-2.56-12.94-8.09-.47-1.39-.66-2.81-.61-4.2.02-.66-.44-1.24-1.09-1.37l-12.73-2.62c-.44-.08-.88.05-1.21.34-.45.42-1,.75-1.63.96-2.41.81-5.02-.54-5.76-2.99-.68-2.22.48-4.64,2.64-5.51,1.05-.42,2.16-.42,3.14-.09.42.14.88.07,1.24-.2l.52-.38,10.36-7.65c.34.47.71.9,1.13,1.3l-10.19,7.52-.03.02c-.53.39-.69,1.11-.4,1.71.08.17.16.35.22.54.02.07.04.13.06.2.14.49.52.86,1.02.96l12.7,2.61c.59.12,1.19-.16,1.48-.69.78-1.43,1.85-2.7,3.16-3.72.47-.36.64-1,.43-1.56l-2.22-5.73c-.18-.48-.61-.81-1.12-.86-1.5-.17-2.91-.8-4.04-1.8-.43-.37-.81-.8-1.15-1.28-.4-.57-.73-1.21-.96-1.91-1.32-3.96.92-8.24,4.98-9.39,3.55-1.01,7.35.82,8.77,4.23,1.16,2.77.5,5.78-1.37,7.82-.34.37-.45.92-.26,1.4l2.21,5.72c.21.55.76.9,1.34.87,5.3-.33,10.36,2.91,12.12,8.18,1.17,3.52.62,7.21-1.21,10.13Z"/><path d="m79.62,15.26h2.45v4.69c-1.27.96-3.02,1.47-4.68,1.47-3.64,0-6.31-2.5-6.31-5.98s2.68-5.98,6.36-5.98c2.03,0,3.72.69,4.84,2l-1.72,1.59c-.84-.89-1.82-1.31-2.99-1.31-2.25,0-3.78,1.5-3.78,3.7s1.54,3.7,3.75,3.7c.73,0,1.4-.13,2.08-.5v-3.39Z"/><path d="m91.92,21.23l-2.23-3.22h-2.46v3.22h-2.68v-11.57h5.01c3.09,0,5.02,1.6,5.02,4.2,0,1.74-.88,3.01-2.38,3.65l2.59,3.72h-2.87Zm-2.51-9.39h-2.18v4.03h2.18c1.64,0,2.46-.76,2.46-2.02s-.83-2.02-2.46-2.02Z"/><path d="m105.66,19.08v2.15h-8.96v-11.57h8.74v2.15h-6.08v2.51h5.37v2.08h-5.37v2.68h6.3Z"/><path d="m116.76,19.08v2.15h-8.96v-11.57h8.74v2.15h-6.08v2.51h5.37v2.08h-5.37v2.68h6.3Z"/><path d="m129.5,9.66v11.57h-2.2l-5.77-7.02v7.02h-2.64v-11.57h2.21l5.75,7.02v-7.02h2.64Z"/><path d="m136.21,15.44c0-3.49,2.68-5.98,6.28-5.98,2,0,3.67.73,4.76,2.05l-1.72,1.59c-.78-.89-1.75-1.35-2.91-1.35-2.16,0-3.7,1.52-3.7,3.7s1.54,3.7,3.7,3.7c1.16,0,2.13-.46,2.91-1.37l1.72,1.59c-1.09,1.34-2.76,2.07-4.78,2.07-3.59,0-6.26-2.5-6.26-5.98Z"/><path d="m159.66,9.66v11.57h-2.68v-4.74h-5.25v4.74h-2.68v-11.57h2.68v4.56h5.25v-4.56h2.68Z"/><path d="m171.37,19.08v2.15h-8.96v-11.57h8.74v2.15h-6.08v2.51h5.37v2.08h-5.37v2.68h6.3Z"/><path d="m184.03,21.23l-.02-6.94-3.4,5.72h-1.21l-3.39-5.57v6.79h-2.51v-11.57h2.21l4.33,7.19,4.26-7.19h2.2l.03,11.57h-2.51Z"/><path d="m189.3,9.66h2.68v11.57h-2.68v-11.57Z"/><path d="m193.81,20.09l.91-2.02c.98.71,2.43,1.21,3.82,1.21,1.59,0,2.23-.53,2.23-1.24,0-2.16-6.73-.68-6.73-4.97,0-1.97,1.59-3.6,4.87-3.6,1.45,0,2.94.35,4.02,1.02l-.83,2.03c-1.07-.61-2.18-.91-3.21-.91-1.59,0-2.2.59-2.2,1.32,0,2.13,6.73.66,6.73,4.91,0,1.93-1.6,3.59-4.91,3.59-1.83,0-3.69-.55-4.71-1.34Z"/><path d="m207.5,11.84h-3.7v-2.18h10.08v2.18h-3.7v9.39h-2.68v-9.39Z"/><path d="m222.69,21.23l-2.23-3.22h-2.46v3.22h-2.68v-11.57h5.01c3.09,0,5.02,1.6,5.02,4.2,0,1.74-.88,3.01-2.38,3.65l2.59,3.72h-2.88Zm-2.51-9.39h-2.18v4.03h2.18c1.64,0,2.46-.76,2.46-2.02s-.83-2.02-2.46-2.02Z"/><path d="m232.86,17.13v4.1h-2.68v-4.13l-4.48-7.44h2.84l3.09,5.14,3.09-5.14h2.63l-4.49,7.47Z"/><path d="m72.44,30.04v1.91h3.03v.98h-3.03v2.4h-1.16v-6.27h4.58v.98h-3.41Z"/><path d="m76.46,32.19c0-1.85,1.43-3.22,3.38-3.22s3.38,1.36,3.38,3.22-1.43,3.23-3.38,3.23-3.38-1.37-3.38-3.23Zm5.58,0c0-1.28-.94-2.2-2.2-2.2s-2.2.92-2.2,2.2.94,2.2,2.2,2.2,2.2-.92,2.2-2.2Z"/><path d="m88.55,35.33l-1.28-1.84c-.08,0-.16,0-.24,0h-1.42v1.83h-1.16v-6.27h2.58c1.65,0,2.67.84,2.67,2.23,0,.95-.48,1.65-1.33,1.98l1.44,2.06h-1.25Zm-1.58-5.28h-1.36v2.5h1.36c1.02,0,1.55-.47,1.55-1.25s-.53-1.24-1.55-1.24Z"/><path d="m95.3,39.2l.91-2.02c.98.71,2.43,1.21,3.82,1.21,1.59,0,2.23-.53,2.23-1.24,0-2.16-6.73-.68-6.73-4.97,0-1.97,1.59-3.6,4.87-3.6,1.45,0,2.94.35,4.02,1.02l-.83,2.03c-1.07-.61-2.18-.91-3.21-.91-1.59,0-2.2.59-2.2,1.32,0,2.13,6.73.66,6.73,4.91,0,1.93-1.6,3.59-4.91,3.59-1.83,0-3.69-.54-4.71-1.34Z"/><path d="m106.66,35.25v-6.48h2.68v6.38c0,2.2.96,3.11,2.58,3.11s2.58-.91,2.58-3.11v-6.38h2.64v6.48c0,3.4-1.95,5.29-5.24,5.29s-5.24-1.88-5.24-5.29Z"/><path d="m118.88,39.2l.91-2.02c.98.71,2.43,1.21,3.82,1.21,1.59,0,2.23-.53,2.23-1.24,0-2.16-6.73-.68-6.73-4.97,0-1.97,1.59-3.6,4.87-3.6,1.45,0,2.94.35,4.02,1.02l-.83,2.03c-1.07-.61-2.18-.91-3.21-.91-1.59,0-2.2.59-2.2,1.32,0,2.13,6.73.66,6.73,4.91,0,1.93-1.6,3.59-4.91,3.59-1.83,0-3.69-.54-4.71-1.34Z"/><path d="m132.57,30.95h-3.7v-2.18h10.08v2.18h-3.7v9.39h-2.68v-9.39Z"/><path d="m147.43,37.86h-5.37l-1.03,2.48h-2.74l5.16-11.57h2.64l5.17,11.57h-2.81l-1.02-2.48Zm-.84-2.03l-1.84-4.43-1.83,4.43h3.67Z"/><path d="m152.48,28.77h2.68v11.57h-2.68v-11.57Z"/><path d="m168.51,28.77v11.57h-2.2l-5.77-7.02v7.02h-2.64v-11.57h2.21l5.75,7.02v-7.02h2.64Z"/><path d="m178.88,37.86h-5.37l-1.03,2.48h-2.74l5.16-11.57h2.64l5.17,11.57h-2.81l-1.02-2.48Zm-.84-2.03l-1.84-4.43-1.83,4.43h3.67Z"/><path d="m194.53,37.18c0,2-1.59,3.16-4.63,3.16h-5.98v-11.57h5.65c2.89,0,4.38,1.21,4.38,3.01,0,1.16-.59,2.05-1.54,2.55,1.29.41,2.12,1.4,2.12,2.86Zm-7.95-6.4v2.73h2.66c1.31,0,2.02-.46,2.02-1.37s-.71-1.35-2.02-1.35h-2.66Zm5.25,6.12c0-.98-.74-1.44-2.13-1.44h-3.12v2.86h3.12c1.39,0,2.13-.43,2.13-1.42Z"/><path d="m196.57,28.77h2.68v11.57h-2.68v-11.57Z"/><path d="m201.99,28.77h2.68v9.39h5.8v2.18h-8.48v-11.57Z"/><path d="m211.98,28.77h2.68v11.57h-2.68v-11.57Z"/><path d="m219.8,30.95h-3.7v-2.18h10.08v2.18h-3.7v9.39h-2.68v-9.39Z"/><path d="m232.96,36.24v4.1h-2.68v-4.13l-4.48-7.44h2.84l3.09,5.14,3.09-5.14h2.63l-4.49,7.47Z"/></svg>